# MagicaVoxel @ ephtracy

# material
mtllib mushroom.mtl

# normals
vn -1 0 0
vn 1 0 0
vn 0 0 1
vn 0 0 -1
vn 0 -1 0
vn 0 1 0

# texcoords
vt 0.00195312 0.5
vt 0.224609 0.5

# verts
v -4 4 -1
v -4 5 -1
v -4 5 -2
v -4 4 -2
v -1 0 2
v -1 1 2
v -1 1 1
v -1 0 1
v -2 0 -0
v -2 1 -0
v -2 1 -1
v -2 0 -1
v -1 2 2
v -1 3 2
v -1 3 1
v -1 2 1
v -2 2 -0
v -2 2 -1
v -1 0 -1
v -1 1 -1
v -1 1 -2
v -1 0 -2
v -1 7 -1
v -1 8 -1
v -1 8 -2
v -1 7 -2
v -4 4 2
v -4 5 2
v -4 5 1
v -4 4 1
v -1 5 4
v -1 6 4
v -1 6 3
v -1 5 3
v -2 7 -0
v -2 8 -0
v -2 8 -1
v -2 7 -1
v -4 5 -0
v -4 4 -0
v -1 4 2
v -1 4 1
v -2 7 1
v -2 8 1
v -2 0 1
v -2 1 1
v -1 3 -1
v -1 4 -1
v -1 4 -2
v -1 3 -2
v -1 7 2
v -1 8 2
v -1 8 1
v -1 7 1
v -2 3 -0
v -2 3 -1
v -2 2 1
v -2 3 1
v -2 4 4
v -2 5 4
v -2 5 3
v -2 4 3
v -2 4 -0
v -2 4 -1
v -2 4 1
v -2 4 -3
v -2 5 -3
v -2 5 -4
v -2 4 -4
v -3 4 3
v -3 5 3
v -3 5 2
v -3 4 2
v -3 6 -0
v -3 7 -0
v -3 7 -1
v -3 6 -1
v -1 2 -1
v -1 2 -2
v -3 6 1
v -3 7 1
v -1 5 -3
v -1 6 -3
v -1 6 -4
v -1 5 -4
v -3 4 -2
v -3 5 -2
v -3 5 -3
v -3 4 -3
v -3 5 -1
v -3 6 -2
v -4 6 -0
v -4 6 -1
v -4 6 1
v -3 6 2
v -3 5 1
v -2 6 -2
v -2 7 -2
v -2 7 -3
v -2 6 -3
v -3 7 -2
v -3 6 -3
v -3 7 2
v -2 6 3
v -2 7 3
v -2 7 2
v -2 6 2
v -3 6 3
v 1 0 2
v 1 0 1
v 1 1 1
v 1 1 2
v 2 7 -0
v 2 7 -1
v 2 8 -1
v 2 8 -0
v 2 2 -0
v 2 2 -1
v 2 3 -1
v 2 3 -0
v 2 7 1
v 2 8 1
v 1 0 -1
v 1 0 -2
v 1 1 -2
v 1 1 -1
v 1 7 -1
v 1 7 -2
v 1 8 -2
v 1 8 -1
v 4 4 -0
v 4 4 -1
v 4 5 -1
v 4 5 -0
v 1 2 2
v 1 2 1
v 1 3 1
v 1 3 2
v 2 0 1
v 2 0 -0
v 2 1 -0
v 2 1 1
v 2 0 -1
v 2 1 -1
v 1 7 2
v 1 7 1
v 1 8 1
v 1 8 2
v 1 3 -1
v 1 3 -2
v 1 4 -2
v 1 4 -1
v 1 4 1
v 1 4 2
v 2 4 4
v 2 4 3
v 2 5 3
v 2 5 4
v 4 4 1
v 4 5 1
v 3 4 3
v 3 4 2
v 3 5 2
v 3 5 3
v 2 4 -1
v 2 4 -0
v 3 6 -0
v 3 6 -1
v 3 7 -1
v 3 7 -0
v 3 6 1
v 3 7 1
v 1 2 -2
v 1 2 -1
v 2 3 1
v 2 4 1
v 4 4 -2
v 4 5 -2
v 3 4 -2
v 3 4 -3
v 3 5 -3
v 3 5 -2
v 2 2 1
v 4 4 2
v 4 5 2
v 2 4 -3
v 2 4 -4
v 2 5 -4
v 2 5 -3
v 1 5 -3
v 1 5 -4
v 1 6 -4
v 1 6 -3
v 3 5 -1
v 3 6 -2
v 4 6 -1
v 4 6 -0
v 4 6 1
v 3 5 1
v 3 6 2
v 1 5 4
v 1 5 3
v 1 6 3
v 1 6 4
v 3 7 -2
v 2 6 -2
v 2 6 -3
v 2 7 -3
v 2 7 -2
v 3 6 -3
v 2 6 3
v 2 6 2
v 2 7 2
v 2 7 3
v 3 7 2
v 3 6 3
v 0 0 2
v 0 1 2
v 0 2 2
v 0 3 2
v 0 5 4
v 0 6 4
v 0 4 2
v 0 7 2
v 0 8 2
v -1 4 4
v 0 4 4
v 1 4 4
v 0 6 3
v 1 7 3
v 0 7 3
v -1 7 3
v 0 0 -2
v 0 1 -2
v 0 7 -2
v 0 8 -2
v 0 4 -2
v 0 3 -2
v 0 6 -3
v 0 7 -3
v 1 7 -3
v -1 7 -3
v -1 4 -4
v 0 5 -4
v 0 4 -4
v 0 2 -2
v 0 6 -4
v 1 4 -4
v 3 4 -0
v 3 4 1
v -3 4 -1
v 0 0 1
v -1 4 3
v 0 4 3
v -3 4 1
v -3 4 -0
v -1 0 -0
v 1 4 -3
v 2 4 -2
v 0 0 -1
v 3 4 -1
v -1 4 -3
v 0 4 -3
v -2 4 2
v 1 0 -0
v 0 0 -0
v 1 4 3
v 2 4 2
v -2 4 -2
v 1 8 -0
v 0 8 -1
v 0 8 -0
v -1 8 -0
v 0 8 1

# faces

usemtl palette

f 1/2/1 2/2/1 3/2/1 4/2/1

f 5/1/1 6/1/1 7/1/1 8/1/1

f 9/1/1 10/1/1 11/1/1 12/1/1

f 13/1/1 14/1/1 15/1/1 16/1/1

f 10/1/1 17/1/1 18/1/1 11/1/1

f 19/1/1 20/1/1 21/1/1 22/1/1

f 23/2/1 24/2/1 25/2/1 26/2/1

f 27/2/1 28/2/1 29/2/1 30/2/1

f 31/2/1 32/2/1 33/2/1 34/2/1

f 35/2/1 36/2/1 37/2/1 38/2/1

f 30/2/1 29/2/1 39/2/1 40/2/1

f 14/1/1 41/1/1 42/1/1 15/1/1

f 43/2/1 44/2/1 36/2/1 35/2/1

f 45/1/1 46/1/1 10/1/1 9/1/1

f 47/1/1 48/1/1 49/1/1 50/1/1

f 51/2/1 52/2/1 53/2/1 54/2/1

f 17/1/1 55/1/1 56/1/1 18/1/1

f 57/1/1 58/1/1 55/1/1 17/1/1

f 40/2/1 39/2/1 2/2/1 1/2/1

f 59/2/1 60/2/1 61/2/1 62/2/1

f 6/1/1 13/1/1 16/1/1 7/1/1

f 55/1/1 63/1/1 64/1/1 56/1/1

f 58/1/1 65/1/1 63/1/1 55/1/1

f 66/2/1 67/2/1 68/2/1 69/2/1

f 70/2/1 71/2/1 72/2/1 73/2/1

f 74/2/1 75/2/1 76/2/1 77/2/1

f 78/1/1 47/1/1 50/1/1 79/1/1

f 80/2/1 81/2/1 75/2/1 74/2/1

f 82/2/1 83/2/1 84/2/1 85/2/1

f 20/1/1 78/1/1 79/1/1 21/1/1

f 86/2/1 87/2/1 88/2/1 89/2/1

f 46/1/1 57/1/1 17/1/1 10/1/1

f 90/2/1 77/2/1 91/2/1 87/2/1

f 39/2/1 92/2/1 93/2/1 2/2/1

f 29/2/1 94/2/1 92/2/1 39/2/1

f 72/2/1 95/2/1 80/2/1 96/2/1

f 97/2/1 98/2/1 99/2/1 100/2/1

f 77/2/1 76/2/1 101/2/1 91/2/1

f 87/2/1 91/2/1 102/2/1 88/2/1

f 95/2/1 103/2/1 81/2/1 80/2/1

f 104/2/1 105/2/1 106/2/1 107/2/1

f 71/2/1 108/2/1 95/2/1 72/2/1

f 109/1/2 110/1/2 111/1/2 112/1/2

f 113/2/2 114/2/2 115/2/2 116/2/2

f 117/1/2 118/1/2 119/1/2 120/1/2

f 121/2/2 113/2/2 116/2/2 122/2/2

f 123/1/2 124/1/2 125/1/2 126/1/2

f 127/2/2 128/2/2 129/2/2 130/2/2

f 131/2/2 132/2/2 133/2/2 134/2/2

f 135/1/2 136/1/2 137/1/2 138/1/2

f 139/1/2 140/1/2 141/1/2 142/1/2

f 140/1/2 143/1/2 144/1/2 141/1/2

f 145/2/2 146/2/2 147/2/2 148/2/2

f 149/1/2 150/1/2 151/1/2 152/1/2

f 138/1/2 137/1/2 153/1/2 154/1/2

f 155/2/2 156/2/2 157/2/2 158/2/2

f 159/2/2 131/2/2 134/2/2 160/2/2

f 161/2/2 162/2/2 163/2/2 164/2/2

f 141/1/2 144/1/2 118/1/2 117/1/2

f 120/1/2 119/1/2 165/1/2 166/1/2

f 167/2/2 168/2/2 169/2/2 170/2/2

f 171/2/2 167/2/2 170/2/2 172/2/2

f 126/1/2 125/1/2 173/1/2 174/1/2

f 175/1/2 120/1/2 166/1/2 176/1/2

f 132/2/2 177/2/2 178/2/2 133/2/2

f 179/2/2 180/2/2 181/2/2 182/2/2

f 142/1/2 141/1/2 117/1/2 183/1/2

f 184/2/2 159/2/2 160/2/2 185/2/2

f 112/1/2 111/1/2 136/1/2 135/1/2

f 183/1/2 117/1/2 120/1/2 175/1/2

f 186/2/2 187/2/2 188/2/2 189/2/2

f 190/2/2 191/2/2 192/2/2 193/2/2

f 174/1/2 173/1/2 150/1/2 149/1/2

f 194/2/2 182/2/2 195/2/2 168/2/2

f 134/2/2 133/2/2 196/2/2 197/2/2

f 160/2/2 134/2/2 197/2/2 198/2/2

f 163/2/2 199/2/2 171/2/2 200/2/2

f 201/2/2 202/2/2 203/2/2 204/2/2

f 168/2/2 195/2/2 205/2/2 169/2/2

f 206/2/2 207/2/2 208/2/2 209/2/2

f 182/2/2 181/2/2 210/2/2 195/2/2

f 211/2/2 212/2/2 213/2/2 214/2/2

f 200/2/2 171/2/2 172/2/2 215/2/2

f 164/2/2 163/2/2 200/2/2 216/2/2

f 217/1/3 109/1/3 112/1/3 218/1/3

f 5/1/3 217/1/3 218/1/3 6/1/3

f 146/2/3 121/2/3 122/2/3 147/2/3

f 13/1/3 219/1/3 220/1/3 14/1/3

f 27/2/3 73/2/3 72/2/3 28/2/3

f 31/2/3 221/2/3 222/2/3 32/2/3

f 219/1/3 135/1/3 138/1/3 220/1/3

f 110/1/3 139/1/3 142/1/3 111/1/3

f 14/1/3 220/1/3 223/1/3 41/1/3

f 43/2/3 54/2/3 53/2/3 44/2/3

f 45/1/3 8/1/3 7/1/3 46/1/3

f 224/2/3 145/2/3 148/2/3 225/2/3

f 51/2/3 224/2/3 225/2/3 52/2/3

f 220/1/3 138/1/3 154/1/3 223/1/3

f 57/1/3 16/1/3 15/1/3 58/1/3

f 59/2/3 226/2/3 31/2/3 60/2/3

f 226/2/3 227/2/3 221/2/3 31/2/3

f 227/2/3 228/2/3 201/2/3 221/2/3

f 228/2/3 155/2/3 158/2/3 201/2/3

f 156/2/3 161/2/3 164/2/3 157/2/3

f 6/1/3 218/1/3 219/1/3 13/1/3

f 58/1/3 15/1/3 42/1/3 65/1/3

f 70/2/3 62/2/3 61/2/3 71/2/3

f 137/1/3 175/1/3 176/1/3 153/1/3

f 229/2/3 203/2/3 230/2/3 231/2/3

f 33/2/3 229/2/3 231/2/3 232/2/3

f 111/1/3 142/1/3 183/1/3 136/1/3

f 202/2/3 157/2/3 211/2/3 203/2/3

f 162/2/3 184/2/3 185/2/3 163/2/3

f 218/1/3 112/1/3 135/1/3 219/1/3

f 136/1/3 183/1/3 175/1/3 137/1/3

f 46/1/3 7/1/3 16/1/3 57/1/3

f 61/2/3 34/2/3 33/2/3 104/2/3

f 199/2/3 160/2/3 198/2/3 171/2/3

f 29/2/3 96/2/3 80/2/3 94/2/3

f 221/2/3 201/2/3 204/2/3 222/2/3

f 95/2/3 107/2/3 106/2/3 103/2/3

f 104/2/3 33/2/3 232/2/3 105/2/3

f 71/2/3 61/2/3 104/2/3 108/2/3

f 203/2/3 211/2/3 214/2/3 230/2/3

f 212/2/3 200/2/3 215/2/3 213/2/3

f 157/2/3 164/2/3 216/2/3 211/2/3

f 4/2/4 3/2/4 87/2/4 86/2/4

f 12/1/4 11/1/4 20/1/4 19/1/4

f 127/2/4 130/2/4 115/2/4 114/2/4

f 174/1/4 149/1/4 119/1/4 118/1/4

f 11/1/4 18/1/4 78/1/4 20/1/4

f 233/1/4 234/1/4 125/1/4 124/1/4

f 22/1/4 21/1/4 234/1/4 233/1/4

f 235/2/4 236/2/4 129/2/4 128/2/4

f 26/2/4 25/2/4 236/2/4 235/2/4

f 38/2/4 37/2/4 24/2/4 23/2/4

f 50/1/4 49/1/4 237/1/4 238/1/4

f 123/1/4 126/1/4 144/1/4 143/1/4

f 18/1/4 56/1/4 47/1/4 78/1/4

f 238/1/4 237/1/4 151/1/4 150/1/4

f 126/1/4 174/1/4 118/1/4 144/1/4

f 149/1/4 152/1/4 165/1/4 119/1/4

f 56/1/4 64/1/4 48/1/4 47/1/4

f 239/2/4 240/2/4 241/2/4 193/2/4

f 83/2/4 242/2/4 240/2/4 239/2/4

f 243/2/4 85/2/4 244/2/4 245/2/4

f 69/2/4 68/2/4 85/2/4 243/2/4

f 79/1/4 50/1/4 238/1/4 246/1/4

f 234/1/4 246/1/4 173/1/4 125/1/4

f 85/2/4 84/2/4 247/2/4 244/2/4

f 179/2/4 182/2/4 178/2/4 177/2/4

f 21/1/4 79/1/4 246/1/4 234/1/4

f 89/2/4 88/2/4 67/2/4 66/2/4

f 186/2/4 189/2/4 181/2/4 180/2/4

f 248/2/4 191/2/4 188/2/4 187/2/4

f 244/2/4 247/2/4 192/2/4 191/2/4

f 245/2/4 244/2/4 191/2/4 248/2/4

f 246/1/4 238/1/4 150/1/4 173/1/4

f 190/2/4 193/2/4 207/2/4 189/2/4

f 67/2/4 100/2/4 83/2/4 82/2/4

f 194/2/4 168/2/4 196/2/4 133/2/4

f 2/2/4 93/2/4 77/2/4 90/2/4

f 206/2/4 209/2/4 205/2/4 195/2/4

f 193/2/4 241/2/4 208/2/4 207/2/4

f 189/2/4 207/2/4 210/2/4 181/2/4

f 100/2/4 99/2/4 242/2/4 83/2/4

f 91/2/4 101/2/4 98/2/4 97/2/4

f 88/2/4 102/2/4 100/2/4 67/2/4

f 176/2/5 166/2/5 249/2/5 250/2/5

f 1/2/5 4/2/5 86/2/5 251/2/5

f 217/1/5 252/1/5 110/1/5 109/1/5

f 5/1/5 8/1/5 252/1/5 217/1/5

f 253/2/5 41/2/5 223/2/5 254/2/5

f 255/2/5 256/2/5 63/2/5 65/2/5

f 9/1/5 12/1/5 19/1/5 257/1/5

f 151/2/5 258/2/5 186/2/5 259/2/5

f 260/1/5 233/1/5 124/1/5 123/1/5

f 19/1/5 22/1/5 233/1/5 260/1/5

f 27/2/5 30/2/5 255/2/5 73/2/5

f 249/2/5 261/2/5 132/2/5 131/2/5

f 49/2/5 262/2/5 263/2/5 237/2/5

f 62/2/5 264/2/5 41/2/5 253/2/5

f 110/1/5 265/1/5 140/1/5 139/1/5

f 252/1/5 266/1/5 265/1/5 110/1/5

f 30/2/5 40/2/5 256/2/5 255/2/5

f 8/1/5 257/1/5 266/1/5 252/1/5

f 45/1/5 9/1/5 257/1/5 8/1/5

f 165/2/5 259/2/5 179/2/5 261/2/5

f 265/1/5 123/1/5 143/1/5 140/1/5

f 73/2/5 255/2/5 65/2/5 264/2/5

f 166/2/5 165/2/5 261/2/5 249/2/5

f 266/1/5 260/1/5 123/1/5 265/1/5

f 257/1/5 19/1/5 260/1/5 266/1/5

f 267/2/5 154/2/5 268/2/5 156/2/5

f 40/2/5 1/2/5 251/2/5 256/2/5

f 59/2/5 62/2/5 253/2/5 226/2/5

f 226/2/5 253/2/5 254/2/5 227/2/5

f 227/2/5 254/2/5 267/2/5 228/2/5

f 228/2/5 267/2/5 156/2/5 155/2/5

f 256/2/5 251/2/5 64/2/5 63/2/5

f 250/2/5 249/2/5 131/2/5 159/2/5

f 156/2/5 268/2/5 162/2/5 161/2/5

f 154/2/5 153/2/5 176/2/5 268/2/5

f 262/2/5 243/2/5 245/2/5 263/2/5

f 66/2/5 69/2/5 243/2/5 262/2/5

f 64/2/5 269/2/5 49/2/5 48/2/5

f 70/2/5 73/2/5 264/2/5 62/2/5

f 152/2/5 151/2/5 259/2/5 165/2/5

f 261/2/5 179/2/5 177/2/5 132/2/5

f 269/2/5 66/2/5 262/2/5 49/2/5

f 86/2/5 89/2/5 66/2/5 269/2/5

f 251/2/5 86/2/5 269/2/5 64/2/5

f 259/2/5 186/2/5 180/2/5 179/2/5

f 162/2/5 250/2/5 159/2/5 184/2/5

f 268/2/5 176/2/5 250/2/5 162/2/5

f 264/2/5 65/2/5 42/2/5 41/2/5

f 258/2/5 248/2/5 187/2/5 186/2/5

f 263/2/5 245/2/5 248/2/5 258/2/5

f 237/2/5 263/2/5 258/2/5 151/2/5

f 254/2/5 223/2/5 154/2/5 267/2/5

f 2/2/6 90/2/6 87/2/6 3/2/6

f 270/2/6 116/2/6 115/2/6 130/2/6

f 147/2/6 122/2/6 116/2/6 270/2/6

f 271/2/6 130/2/6 129/2/6 236/2/6

f 24/2/6 271/2/6 236/2/6 25/2/6

f 28/2/6 72/2/6 96/2/6 29/2/6

f 32/2/6 222/2/6 229/2/6 33/2/6

f 272/2/6 270/2/6 130/2/6 271/2/6

f 273/2/6 272/2/6 271/2/6 24/2/6

f 36/2/6 273/2/6 24/2/6 37/2/6

f 274/2/6 147/2/6 270/2/6 272/2/6

f 53/2/6 274/2/6 272/2/6 273/2/6

f 44/2/6 53/2/6 273/2/6 36/2/6

f 225/2/6 148/2/6 147/2/6 274/2/6

f 52/2/6 225/2/6 274/2/6 53/2/6

f 60/2/6 31/2/6 34/2/6 61/2/6

f 201/2/6 158/2/6 157/2/6 202/2/6

f 235/2/6 128/2/6 241/2/6 240/2/6

f 26/2/6 235/2/6 240/2/6 242/2/6

f 67/2/6 82/2/6 85/2/6 68/2/6

f 127/2/6 114/2/6 209/2/6 128/2/6

f 38/2/6 23/2/6 26/2/6 98/2/6

f 113/2/6 170/2/6 169/2/6 114/2/6

f 75/2/6 35/2/6 38/2/6 76/2/6

f 121/2/6 172/2/6 170/2/6 113/2/6

f 81/2/6 43/2/6 35/2/6 75/2/6

f 83/2/6 239/2/6 247/2/6 84/2/6

f 145/2/6 213/2/6 121/2/6 146/2/6

f 106/2/6 51/2/6 54/2/6 43/2/6

f 194/2/6 133/2/6 178/2/6 182/2/6

f 231/2/6 230/2/6 145/2/6 224/2/6

f 232/2/6 231/2/6 224/2/6 51/2/6

f 163/2/6 185/2/6 160/2/6 199/2/6

f 190/2/6 189/2/6 188/2/6 191/2/6

f 239/2/6 193/2/6 192/2/6 247/2/6

f 167/2/6 197/2/6 196/2/6 168/2/6

f 92/2/6 74/2/6 77/2/6 93/2/6

f 171/2/6 198/2/6 197/2/6 167/2/6

f 94/2/6 80/2/6 74/2/6 92/2/6

f 222/2/6 204/2/6 203/2/6 229/2/6

f 114/2/6 169/2/6 205/2/6 209/2/6

f 128/2/6 209/2/6 208/2/6 241/2/6

f 206/2/6 195/2/6 210/2/6 207/2/6

f 98/2/6 26/2/6 242/2/6 99/2/6

f 76/2/6 38/2/6 98/2/6 101/2/6

f 91/2/6 97/2/6 100/2/6 102/2/6

f 103/2/6 106/2/6 43/2/6 81/2/6

f 105/2/6 232/2/6 51/2/6 106/2/6

f 108/2/6 104/2/6 107/2/6 95/2/6

f 230/2/6 214/2/6 213/2/6 145/2/6

f 213/2/6 215/2/6 172/2/6 121/2/6

f 211/2/6 216/2/6 200/2/6 212/2/6

# numNormals 6
# numTexCoords 2
# numVerts 274
# numFaces 272
