# MagicaVoxel @ ephtracy

# material
mtllib grass.mtl

# normals
vn -1 0 0
vn 1 0 0
vn 0 0 1
vn 0 0 -1
vn 0 -1 0
vn 0 1 0

# texcoords
vt 0.599609 0.5

# verts
v -1 0 1
v -1 1 1
v -1 1 -0
v -1 0 -0
v 1 0 1
v 1 1 1
v 1 1 -0
v 1 0 -0
v -1 2 1
v -1 2 -0
v 0 0 1
v 0 0 -0
v 0 1 -0
v 0 1 1
v 2 0 1
v 2 0 -0
v 2 1 -0
v 2 1 1
v 0 2 -0
v 0 2 1

# faces

usemtl palette

f 1/1/1 2/1/1 3/1/1 4/1/1

f 5/1/1 6/1/1 7/1/1 8/1/1

f 2/1/1 9/1/1 10/1/1 3/1/1

f 11/1/2 12/1/2 13/1/2 14/1/2

f 15/1/2 16/1/2 17/1/2 18/1/2

f 14/1/2 13/1/2 19/1/2 20/1/2

f 1/1/3 11/1/3 14/1/3 2/1/3

f 5/1/3 15/1/3 18/1/3 6/1/3

f 2/1/3 14/1/3 20/1/3 9/1/3

f 4/1/4 3/1/4 13/1/4 12/1/4

f 8/1/4 7/1/4 17/1/4 16/1/4

f 3/1/4 10/1/4 19/1/4 13/1/4

f 1/1/5 4/1/5 12/1/5 11/1/5

f 5/1/5 8/1/5 16/1/5 15/1/5

f 6/1/6 18/1/6 17/1/6 7/1/6

f 9/1/6 20/1/6 19/1/6 10/1/6

# numNormals 6
# numTexCoords 1
# numVerts 20
# numFaces 16
